/* XPM */
static char * bonus_xpm[] = {
"16 64 2 1",
" 	c #000000",
"!	c #00FCFF",
"     !!!!!      ",
"    !     !     ",
"    !     !     ",
"     !!!!!      ",
"                ",
"     !!!!!      ",
"    !     !     ",
"    !     !     ",
"     !!!!!      ",
"                ",
"    !  !!!      ",
"    !  !  !     ",
"    !  !  !     ",
"     !!!!!      ",
"                ",
"    !!!!!!!     ",
"                ",
"     !!!!!      ",
"    !     !     ",
"    !     !     ",
"     !!!!!      ",
"                ",
"     !!!!!      ",
"    !     !     ",
"    !     !     ",
"     !!!!!      ",
"                ",
"     !! !!      ",
"    !  !  !     ",
"    !  !  !     ",
"    !  !  !     ",
"     !! !!      ",
"                ",
"     !!!!!      ",
"    !     !     ",
"    !     !     ",
"     !!!!!      ",
"                ",
"     !!!!!      ",
"    !     !     ",
"    !     !     ",
"     !!!!!      ",
"                ",
"        !       ",
"    !!!!!!!     ",
"     !  !       ",
"      ! !       ",
"       !!       ",
"                ",
"     !!!!!      ",
"    !     !     ",
"    !     !     ",
"     !!!!!      ",
"                ",
"     !!!!!      ",
"    !     !     ",
"    !     !     ",
"     !!!!!      ",
"                ",
"     !!   !     ",
"    !  !  !     ",
"    !   ! !     ",
"    !    !!     ",
"     !!   !     "};