/* XPM */
static char * branik_4bpp_xpm[] = {
"64 98 16 1",
" 	c #000000",
".	c #FF0000",
"+	c #FF9966",
"@	c #FF99FF",
"#	c #000000",
"$	c #00FFFF",
"%	c #66CCFF",
"&	c #FFCC66",
"*	c #000000",
"=	c #FFFF00",
"-	c #000000",
";	c #FFCCCC",
">	c #00FF00",
",	c #66CCCC",
"'	c #0033FF",
")	c #FFFFFF",
"                                                   ++           ",
"                                                   &            ",
"                                                  +&            ",
"                                                 +&&+           ",
"                                                 ++&+           ",
"                                                   &+           ",
"                                                   ++        ++ ",
"                                                   ++   +++&&&+ ",
"                                               +   +&+&&&&&&&+  ",
"                                              ++    &&&&&&&&&   ",
"                                             +&&&+  &&&&&&++    ",
"                  +                          &&&&&+ &++         ",
"                  ++                        ++&&&&&&&           ",
"                  +&+                    +  +  +&&&&&&+         ",
"                  &&+&+                 &&&      +&&&&&&++      ",
"                  +&&+&                +&+&+       +&&&&&+      ",
"                   +++++                + ++         &&&&       ",
"                   +++&++++               +           +&+       ",
"                    ++&&+&+   +           &           +&        ",
"            ++        +&+&+&++&+         +&&+         ++        ",
"           +&&&&&+     &+&+&&&+++ ++     +&&&&&+                ",
"         +&&&&&++&++   +&+&&&++&&+&+     &&&&&&&&++  ++         ",
"        +&&+++&++&&&+ ++&+&&+&+&&+&+    ++++&&&&&&&&&&          ",
"         &&+&&+++&&&+ &+&+&&+&+&&+&     +    ++&&&&&&+          ",
"          &&+++&+&+&&&++&+&&&&&&+&+             ++&&&+          ",
"          &&&&++++++&++&+&&&++&&+&+    +           +&           ",
"          +&&&+&&&&&&++&+&&+&+&&+&     &+          ++           ",
"            +&&&&&&++&+&++&+++&&&&     &&&++                    ",
"             ++++++  &+&+++&&+++&+    +&&&&&&+++                ",
"                     &&&&++++&&+&+    +    ++++&&&++            ",
"                     +&+&&+&++++&+    +        +&&&+            ",
"               +    ++&+&&+++&&+&             &&&&&     +&+     ",
"              +&+  +&+&+&&&&&&&&&           +&&&&&+     +&+     ",
"            +&&&+ +&&+&+&&++&&+&+          +&&&&+               ",
"            +&&&&&&+++&+&+&&+&+&+        +&&&&&+                ",
"             +&&+&&+&&&&&&++&&+&+       +&&&&+                  ",
"              && +&++&+&&&&&&&+&+     +&&&&&+                   ",
"                  +&+&+&&&&&&&+&     &&&&&+            &&&+     ",
"                  +&+&+&&&&&&&+&     &&&&+            ++  ++    ",
"             +++   &+&+&&+++&&&&    +&&&+        +    +  +  +   ",
"            &&&&&  &+&+&&&&+&&&&    +&++&&&&++++&+     +&+      ",
"           +&+++&& &+&+&&+++&+&+    +     +++&&&&+              ",
"        +&+&&+&&+& &+&+&&&&&&+&+    &          +&+              ",
"   ++++&&&+&+&+&+&+&+&+&&&&&&+&+    +  +        &+              ",
"   &&&+&&&+&++++&++&+&+&+++&&+&+    & +&        +      &&&+     ",
"  +&&++&&&+&&++&++&++&+&+&&+&+&+    &&&&              ++  ++    ",
"  +&+++++&&+&&&+&&+++&++++++++&+    +&&+        &     +  +  +   ",
"+&+++++++++&+&&&&++&+++&+&&+&+&+               +&      +&+      ",
"++&&&+&+&&&+&++++&&&++&+&&&+&&++             +&&&               ",
"++++++&+++++++&&++&&++&&+&&+&+++           +&&&&&               ",
" +&&+++++&&+&&&&&&+&+&++++++++&+         +&&&&&&&               ",
"  +&&++&&&&&&++++&&++&+&+&&+&+&+       +&&&&&&++       &++&++   ",
"   &&&+&&&+&&+&+&+&&+&+&+&++&+&+     +&&&&&&+         +  &  +   ",
"   +&&+&&&+&+&+&+&+&+&+&&+&&&+&+    +&&&&&+++         ++++  +   ",
"       +&&+&+&&&+& &+&+&&&&&&+&+    +&&&+  ++          ++ +&+   ",
"           &&+++&& &+&+&&++&&+&+    +&&+   ++                   ",
"            &&&&&+ &+&+&&&&+&&&+    ++++&++++                   ",
"             ++++  &+&+&&+&+&&&&     +   +&&&+  ++              ",
"                   &+&+&&&+&&&+&           &&&&&&+    +++++++   ",
"                  +&+&+&&&&&&&+&       &+ ++ ++&&&     ++++++   ",
"              ++  &&+&+&&&&&&&+&      &&  &+    +&              ",
"             +&& &&+&&&&&&++&&+&+     &&+&+      +              ",
"            +&&&&&&+&+&+&+&&+&+&+     +&&+       ++             ",
"            +&&&++&&++&+&+++&&+&+                ++             ",
"             ++&+  +&+&+&&&&&&&&&                &&      &+     ",
"               +    ++&+&&&+&&&+&               +&&     +&+     ",
"                     +&+&&+&+&&+&               &&&+     +      ",
"                     &&&&&++++++&+      &&&+   &&&&+            ",
"              +  ++  &+&+++&&+++&+     +&&&&+ +&&&+             ",
"             &&&&&&++&+&+&&++++&&&     &&&&+&+&&&+              ",
"          ++&&+&&&&&&++&++++&+&&+&     &&+   +&&+               ",
"          &&&&++&++&&++&+&&&++&&+&+    +&     &&    &           ",
"          &&&&+++&++&&++&+&&&&&&+&+    +&     ++   +&           ",
"         +&++++&++&&++&+&+&&+++&&&&     &     ++++&&&+          ",
"        +&&++++++&&&+ ++&+&&+&+&&+&     ++  ++&&&&&&&&          ",
"         &&&&&&++&&+   +&+&&+++&&+&+    +++&&&&&&&&&&&+         ",
"           +&&&&&&     &+&+&&&&&++&+     &&&&&&&&++   +         ",
"            ++ ++      &+&+&&+++         +&&&++                 ",
"                    +++&+&++ +&+         +&+       +&+          ",
"                   ++&&&+++               +       &&&&&+        ",
"                   +++&+                         +&&&&&&+       ",
"                  +&&++                          +&&+   &       ",
"                  &&&+&                           &&    ++      ",
"                  +&+                        +&&&+&+     &+     ",
"                  ++                         &&&&&&+     +&     ",
"                  +                          &&&  +&    +&&+    ",
"                                             &&    ++  +&&&&    ",
"                                             +&     ++&&&&&&+   ",
"                                              +    +&&&&&&+ +   ",
"                                               + +&&&&&&+       ",
"                                               +&&&&&&+         ",
"                                                &&&&+           ",
"                                                +&&             ",
"                                                 &+  +          ",
"                                                 ++  +&         ",
"                                                  ++ +&+        ",
"                                                   &&&&         ",
"                                                   +&&+         "};
