/* XPM */
static char * ghost_2bpp_xpm[] = {
"24 16 4 1",
" 	c #42454A",
".	c #FF0000",
"+	c #FFFFFF",
"@	c #0000FF",
"                        ",
"          ........      ",
"       .+@@......       ",
"      .++@@+....        ",
"     ..+++++.....       ",
"     ...+++.......      ",
"    ..............      ",
"    ............        ",
"    ....+@@.....        ",
"    ...++@@+......      ",
"     ..+++++......      ",
"     ...+++......       ",
"      ..........        ",
"       ..........       ",
"          ........      ",
"                        "};
