/* XPM */ 
static const unsigned char * pacman_sprites_xpm[] = {
"16 160 5 1",
" 	c None",
"!	c black",
"#	c #FF0000",
"$	c white",
"%	c #0000FF",
"!!!!!!!!!!!!!!!!",
"!!!!!!####!!!!!!",
"!!!!########!!!!",
"!!!##########!!!",
"!!###$$####$$#!!",
"!!##$$$$##$$$$!!",
"!!##$$%%##$$%%!!",
"!###$$%%##$$%%#!",
"!####$$####$$##!",
"!##############!",
"!##############!",
"!##############!",
"!##############!",
"!##!###!!###!##!",
"!#!!!##!!##!!!#!",
"!!!!!!!!!!!!!!!!",
"!!!!!!!!!!!!!!!!",
"!!!!!!####!!!!!!",
"!!!!########!!!!",
"!!!##########!!!",
"!!###$$####$$#!!",
"!!##$$$$##$$$$!!",
"!!##$$%%##$$%%!!",
"!###$$%%##$$%%#!",
"!####$$####$$##!",
"!##############!",
"!##############!",
"!##############!",
"!##############!",
"!####!####!####!",
"!!##!!!##!!!##!!",
"!!!!!!!!!!!!!!!!",
"!!!!!!!!!!!!!!!!",
"!!!!!!####!!!!!!",
"!!!!########!!!!",
"!!!##########!!!",
"!!#$$####$$###!!",
"!!$$$$##$$$$##!!",
"!!%%$$##%%$$##!!",
"!#%%$$##%%$$###!",
"!##$$####$$####!",
"!##############!",
"!##############!",
"!##############!",
"!##############!",
"!##!###!!###!##!",
"!#!!!##!!##!!!#!",
"!!!!!!!!!!!!!!!!",
"!!!!!!!!!!!!!!!!",
"!!!!!!####!!!!!!",
"!!!!########!!!!",
"!!!##########!!!",
"!!#$$####$$###!!",
"!!$$$$##$$$$##!!",
"!!%%$$##%%$$##!!",
"!#%%$$##%%$$###!",
"!##$$####$$####!",
"!##############!",
"!##############!",
"!##############!",
"!##############!",
"!####!####!####!",
"!!##!!!##!!!##!!",
"!!!!!!!!!!!!!!!!",
"!!!!!!!!!!!!!!!!",
"!!!!!!####!!!!!!",
"!!!!%%####%%!!!!",
"!!!$%%$##$%%$!!!",
"!!#$$$$##$$$$#!!",
"!!#$$$$##$$$$#!!",
"!!##$$####$$##!!",
"!##############!",
"!##############!",
"!##############!",
"!##############!",
"!##############!",
"!##############!",
"!##!###!!###!##!",
"!#!!!##!!##!!!#!",
"!!!!!!!!!!!!!!!!",
"!!!!!!!!!!!!!!!!",
"!!!!!!####!!!!!!",
"!!!!%%####%%!!!!",
"!!!$%%$##$%%$!!!",
"!!#$$$$##$$$$#!!",
"!!#$$$$##$$$$#!!",
"!!##$$####$$##!!",
"!##############!",
"!##############!",
"!##############!",
"!##############!",
"!##############!",
"!##############!",
"!####!####!####!",
"!!##!!!##!!!##!!",
"!!!!!!!!!!!!!!!!",
"!!!!!!!!!!!!!!!!",
"!!!!!!####!!!!!!",
"!!!!########!!!!",
"!!!##########!!!",
"!!############!!",
"!!##$$####$$##!!",
"!!#$$$$##$$$$#!!",
"!##$$$$##$$$$##!",
"!##$%%$##$%%$##!",
"!###%%####%%###!",
"!##############!",
"!##############!",
"!##############!",
"!##!###!!###!##!",
"!#!!!##!!##!!!#!",
"!!!!!!!!!!!!!!!!",
"!!!!!!!!!!!!!!!!",
"!!!!!!####!!!!!!",
"!!!!########!!!!",
"!!!##########!!!",
"!!############!!",
"!!##$$####$$##!!",
"!!#$$$$##$$$$#!!",
"!##$$$$##$$$$##!",
"!##$%%$##$%%$##!",
"!###%%####%%###!",
"!##############!",
"!##############!",
"!##############!",
"!####!####!####!",
"!!##!!!##!!!##!!",
"!!!!!!!!!!!!!!!!",
"!!!!!!!!!!!!!!!!",
"!!!!!!%%%%!!!!!!",
"!!!!%%%%%%%%!!!!",
"!!!%%%%%%%%%%!!!",
"!!%%%%%%%%%%%%!!",
"!!%%%$$%%$$%%%!!",
"!!%%%$$%%$$%%%!!",
"!%%%%%%%%%%%%%%!",
"!%%%%%%%%%%%%%%!",
"!%%$$%%$$%%$$%%!",
"!%$%%$$%%$$%%$%!",
"!%%%%%%%%%%%%%%!",
"!%%%%%%%%%%%%%%!",
"!%%!%%%!!%%%!%%!",
"!%!!!%%!!%%!!!%!",
"!!!!!!!!!!!!!!!!",
"!!!!!!!!!!!!!!!!",
"!!!!!!%%%%!!!!!!",
"!!!!%%%%%%%%!!!!",
"!!!%%%%%%%%%%!!!",
"!!%%%%%%%%%%%%!!",
"!!%%%$$%%$$%%%!!",
"!!%%%$$%%$$%%%!!",
"!%%%%%%%%%%%%%%!",
"!%%%%%%%%%%%%%%!",
"!%%$$%%$$%%$$%%!",
"!%$%%$$%%$$%%$%!",
"!%%%%%%%%%%%%%%!",
"!%%%%%%%%%%%%%%!",
"!%%%%!%%%%!%%%%!",
"!!%%!!!%%!!!%%!!",
"!!!!!!!!!!!!!!!!"};