/* XPM */
static char * pacman_dying_xpm[] = {
"16 176 2 1",
" 	c #42454A",
"!	c #FCFC00",
"                ",
"                ",
"           !    ",
"        !  !  ! ",
"         !   !  ",
"      !        !",
"       !      ! ",
"                ",
"       !      ! ",
"      !        !",
"        !   !   ",
"       !  !  !  ",
"          !     ",
"                ",
"                ",
"                ",
"                ",
"                ",
"                ",
"                ",
"                ",
"                ",
"                ",
"        !!!!!!  ",
"                ",
"                ",
"                ",
"                ",
"                ",
"                ",
"                ",
"                ",
"                ",
"                ",
"                ",
"                ",
"                ",
"             !  ",
"          !!!!! ",
"        !!!!!!  ",
"          !!!!! ",
"             !  ",
"                ",
"                ",
"                ",
"                ",
"                ",
"                ",
"                ",
"                ",
"                ",
"             !  ",
"            !!! ",
"          !!!!! ",
"         !!!!!! ",
"        !!!!!!  ",
"         !!!!!! ",
"          !!!!! ",
"            !!! ",
"             !  ",
"                ",
"                ",
"                ",
"                ",
"                ",
"            !!  ",
"            !!! ",
"           !!!! ",
"          !!!!! ",
"          !!!!! ",
"         !!!!!  ",
"        !!!!!   ",
"         !!!!!  ",
"          !!!!! ",
"          !!!!! ",
"           !!!! ",
"            !!! ",
"            !!  ",
"                ",
"                ",
"           !    ",
"          !!!   ",
"          !!!   ",
"          !!!!  ",
"         !!!!!  ",
"         !!!!!  ",
"        !!!!!   ",
"        !!!!    ",
"        !!!!!   ",
"         !!!!!  ",
"         !!!!!  ",
"          !!!!  ",
"          !!!   ",
"          !!!   ",
"           !    ",
"                ",
"         !!     ",
"         !!!    ",
"         !!!    ",
"         !!!!   ",
"        !!!!!   ",
"        !!!!!   ",
"        !!!!!   ",
"        !!!!    ",
"        !!!!!   ",
"        !!!!!   ",
"        !!!!!   ",
"         !!!!   ",
"         !!!    ",
"         !!!    ",
"         !!     ",
"                ",
"       !!!      ",
"       !!!!     ",
"       !!!!     ",
"       !!!!!    ",
"        !!!!    ",
"        !!!!    ",
"        !!!!    ",
"        !!!     ",
"        !!!!    ",
"        !!!!    ",
"        !!!!    ",
"       !!!!!    ",
"       !!!!     ",
"       !!!!     ",
"       !!!      ",
"                ",
"      !!!       ",
"      !!!!      ",
"      !!!!!     ",
"       !!!!     ",
"       !!!!!    ",
"       !!!!!    ",
"        !!!!    ",
"        !!!     ",
"        !!!!    ",
"       !!!!!    ",
"       !!!!!    ",
"       !!!!     ",
"      !!!!!     ",
"      !!!!      ",
"      !!!       ",
"                ",
"     !!!        ",
"    !!!!!!      ",
"     !!!!!!     ",
"     !!!!!!     ",
"      !!!!!!    ",
"       !!!!!    ",
"       !!!!!    ",
"        !!!     ",
"       !!!!!    ",
"       !!!!!    ",
"      !!!!!!    ",
"     !!!!!!     ",
"     !!!!!!     ",
"    !!!!!!      ",
"     !!!        ",
"                ",
"                ",
"   !!!!!        ",
"   !!!!!!!      ",
"    !!!!!!!     ",
"     !!!!!!     ",
"      !!!!!!    ",
"       !!!!!    ",
"        !!!!    ",
"       !!!!!    ",
"      !!!!!!    ",
"     !!!!!!     ",
"    !!!!!!!     ",
"   !!!!!!!      ",
"   !!!!!        ",
"                ",
"                "};
