/* XPM */ 
static const unsigned char * pacman_pacman_xpm[] = {
"16 144 2 1",
" 	c None",
"!	c black",
"                ",
"   !!     !!    ",
"  !!!     !!!   ",
"  !!!!   !!!!   ",
" !!!!!   !!!!!  ",
" !!!!!   !!!!!  ",
" !!!!!! !!!!!!  ",
" !!!!!! !!!!!!  ",
" !!!!!! !!!!!!  ",
"  !!!!!!!!!!!   ",
"  !!!!!!!!!!!   ",
"   !!!!!!!!!    ",
"     !!!!!      ",
"                ",
"                ",
"                ",
"                ",
"                ",
"                ",
"                ",
" !!         !!  ",
" !!!       !!!  ",
" !!!!     !!!!  ",
" !!!!!   !!!!!  ",
" !!!!!! !!!!!!  ",
"  !!!!!!!!!!!   ",
"  !!!!!!!!!!!   ",
"   !!!!!!!!!    ",
"     !!!!!      ",
"                ",
"                ",
"                ",
"                ",
"     !!!!!      ",
"   !!!!!!!!!    ",
"  !!!!!!!!!!!   ",
"  !!!!!!!!!!!   ",
" !!!!!! !!!!!!  ",
" !!!!!! !!!!!!  ",
" !!!!!! !!!!!!  ",
" !!!!!   !!!!!  ",
" !!!!!   !!!!!  ",
"  !!!!   !!!!   ",
"  !!!     !!!   ",
"   !!     !!    ",
"                ",
"                ",
"                ",
"                ",
"     !!!!!      ",
"   !!!!!!!!!    ",
"  !!!!!!!!!!!   ",
"  !!!!!!!!!!!   ",
" !!!!!! !!!!!!  ",
" !!!!!   !!!!!  ",
" !!!!     !!!!  ",
" !!!       !!!  ",
" !!         !!  ",
"                ",
"                ",
"                ",
"                ",
"                ",
"                ",
"                ",
"     !!!!!      ",
"   !!!!!!!!!    ",
"  !!!!!!!!!!!   ",
"  !!!!!!!!!!!   ",
"    !!!!!!!!!!  ",
"       !!!!!!!  ",
"          !!!!  ",
"       !!!!!!!  ",
"    !!!!!!!!!!  ",
"  !!!!!!!!!!!   ",
"  !!!!!!!!!!!   ",
"   !!!!!!!!!    ",
"     !!!!!      ",
"                ",
"                ",
"                ",
"     !!!!!      ",
"     !!!!!!!    ",
"      !!!!!!!   ",
"       !!!!!!   ",
"        !!!!!!  ",
"         !!!!!  ",
"          !!!!  ",
"         !!!!!  ",
"        !!!!!!  ",
"       !!!!!!   ",
"      !!!!!!!   ",
"     !!!!!!!    ",
"     !!!!!      ",
"                ",
"                ",
"                ",
"     !!!!!      ",
"   !!!!!!!!!    ",
"  !!!!!!!!!!!   ",
"  !!!!!!!!!!!   ",
" !!!!!!!!!!     ",
" !!!!!!!        ",
" !!!!           ",
" !!!!!!!        ",
" !!!!!!!!!!     ",
"  !!!!!!!!!!!   ",
"  !!!!!!!!!!!   ",
"   !!!!!!!!!    ",
"     !!!!!      ",
"                ",
"                ",
"                ",
"     !!!!!      ",
"   !!!!!!!      ",
"  !!!!!!!       ",
"  !!!!!!        ",
" !!!!!!         ",
" !!!!!          ",
" !!!!           ",
" !!!!!          ",
" !!!!!!         ",
"  !!!!!!        ",
"  !!!!!!!       ",
"   !!!!!!!      ",
"     !!!!!      ",
"                ",
"                ",
"                ",
"     !!!!!      ",
"   !!!!!!!!!    ",
"  !!!!!!!!!!!   ",
"  !!!!!!!!!!!   ",
" !!!!!!!!!!!!!  ",
" !!!!!!!!!!!!!  ",
" !!!!!!!!!!!!!  ",
" !!!!!!!!!!!!!  ",
" !!!!!!!!!!!!!  ",
"  !!!!!!!!!!!   ",
"  !!!!!!!!!!!   ",
"   !!!!!!!!!    ",
"     !!!!!      ",
"                ",
"                "};