/* XPM */
static char * pacman_ghosts_xpm[] = {
"16 320 2 1",
" 	c None",
"!	c #000000",
"       !!!!!!!! ",
"    !!  !!!!!!  ",
"   !!!  !!!!!   ",
"  !!!!!!!!!!!!  ",
"  !!!!!!!!!!!!! ",
" !!!!!!!!!!!!!! ",
" !!!!!!!!!!!!   ",
" !!!!!  !!!!!   ",
" !!!!!  !!!!!!! ",
"  !!!!!!!!!!!!! ",
"  !!!!!!!!!!!!  ",
"   !!!!!!!!!!   ",
"    !!!!!!!!!!  ",
"       !!!!!!!! ",
"                ",
"                ",
"       !!!!!!!  ",
"    !!  !!!!!!! ",
"   !!!  !!!!!!! ",
"  !!!!!!!!!!!!  ",
"  !!!!!!!!!!!   ",
" !!!!!!!!!!!!!  ",
" !!!!!!!!!!!!!! ",
" !!!!!  !!!!!!! ",
" !!!!!  !!!!!!  ",
"  !!!!!!!!!!!   ",
"  !!!!!!!!!!!!  ",
"   !!!!!!!!!!!! ",
"    !!!!!!!!!!! ",
"       !!!!!!!  ",
"                ",
"                ",
"       !!!!!!!! ",
"    !!!!!!!!!!  ",
"   !!!!!!!!!!   ",
"  !!!!!!!!!!!!  ",
"  !!!!!!!!!!!!! ",
" !!!!!  !!!!!!! ",
" !!!!!  !!!!!   ",
" !!!!!!!!!!!!   ",
" !!!!!!!!!!!!!! ",
"  !!!!!!!!!!!!! ",
"  !!!!!!!!!!!!  ",
"   !!!  !!!!!   ",
"    !!  !!!!!!  ",
"       !!!!!!!! ",
"                ",
"                ",
"       !!!!!!!  ",
"    !!!!!!!!!!! ",
"   !!!!!!!!!!!! ",
"  !!!!!!!!!!!!  ",
"  !!!!!!!!!!!   ",
" !!!!!  !!!!!!  ",
" !!!!!  !!!!!!! ",
" !!!!!!!!!!!!!! ",
" !!!!!!!!!!!!!  ",
"  !!!!!!!!!!!   ",
"  !!!!!!!!!!!!  ",
"   !!!  !!!!!!! ",
"    !!  !!!!!!! ",
"       !!!!!!!  ",
"                ",
"                ",
"       !!!!!!!! ",
"    !!!!!!!!!!  ",
"   !!!!!!!!!!   ",
"    !!!!!!!!!!  ",
"    !!!!!!!!!!! ",
" !!!!!!!!!!!!!! ",
" !!!!!!!!!!!!   ",
" !!!!!!!!!!!!   ",
" !!!!!!!!!!!!!! ",
"    !!!!!!!!!!! ",
"    !!!!!!!!!!  ",
"   !!!!!!!!!!   ",
"    !!!!!!!!!!  ",
"       !!!!!!!! ",
"                ",
"                ",
"       !!!!!!!  ",
"    !!!!!!!!!!! ",
"   !!!!!!!!!!!! ",
"    !!!!!!!!!!  ",
"    !!!!!!!!!   ",
" !!!!!!!!!!!!!  ",
" !!!!!!!!!!!!!! ",
" !!!!!!!!!!!!!! ",
" !!!!!!!!!!!!!  ",
"    !!!!!!!!!   ",
"    !!!!!!!!!!  ",
"   !!!!!!!!!!!! ",
"    !!!!!!!!!!! ",
"       !!!!!!!  ",
"                ",
"                ",
"       !!!!!!!! ",
"    !!!!!!!!!!  ",
"   !!!!!!!!!!   ",
"  !!!!!!  !!!!  ",
"  !!!!!!  !!!!! ",
" !!!!!!!!!!!!!! ",
" !!!!!!!!!!!!   ",
" !!!!!!!!!!!!   ",
" !!!!!!!!!!!!!! ",
"  !!!!!!  !!!!! ",
"  !!!!!!  !!!!  ",
"   !!!!!!!!!!   ",
"    !!!!!!!!!!  ",
"       !!!!!!!! ",
"                ",
"                ",
"       !!!!!!!  ",
"    !!!!!!!!!!! ",
"   !!!!!!!!!!!! ",
"  !!!!!!  !!!!  ",
"  !!!!!!  !!!   ",
" !!!!!!!!!!!!!  ",
" !!!!!!!!!!!!!! ",
" !!!!!!!!!!!!!! ",
" !!!!!!!!!!!!!  ",
"  !!!!!!  !!!   ",
"  !!!!!!  !!!!  ",
"   !!!!!!!!!!!! ",
"    !!!!!!!!!!! ",
"       !!!!!!!  ",
"                ",
"                ",
"                ",
"     !!!        ",
"    !!!!!       ",
"    !!!!!       ",
"     !!!        ",
"                ",
"                ",
"     !!!        ",
"    !!!!!       ",
"    !!!!!       ",
"     !!!        ",
"                ",
"                ",
"                ",
"                ",
"                ",
"                ",
"                ",
"                ",
"     !!!        ",
"    !!!!!       ",
"    !!!!!       ",
"     !!!        ",
"                ",
"                ",
"     !!!        ",
"    !!!!!       ",
"    !!!!!       ",
"     !!!        ",
"                ",
"                ",
"                ",
"                ",
"                ",
"   !!!          ",
"  !!!!!         ",
"  !!!!!         ",
"   !!!          ",
"                ",
"                ",
"   !!!          ",
"  !!!!!         ",
"  !!!!!         ",
"   !!!          ",
"                ",
"                ",
"                ",
"                ",
"                ",
"                ",
"      !!!       ",
"     !!!!!      ",
"     !!!!!      ",
"      !!!       ",
"                ",
"                ",
"      !!!       ",
"     !!!!!      ",
"     !!!!!      ",
"      !!!       ",
"                ",
"                ",
"                ",
"                ",
"       !!!!!!!! ",
"    !!!!!! !!!  ",
"   !!!!!! !!!   ",
"  !!!!!!! !!!!  ",
"  !!!  !!! !!!! ",
" !!!!  !!! !!!! ",
" !!!!!!!! !!!   ",
" !!!!!!!! !!!   ",
" !!!!  !!! !!!! ",
"  !!!  !!! !!!! ",
"  !!!!!!! !!!!  ",
"   !!!!!! !!!   ",
"    !!!!!! !!!  ",
"       !!!!!!!! ",
"                ",
"                ",
"       !!!!!!!  ",
"    !!!!!! !!!! ",
"   !!!!!! !!!!! ",
"  !!!!!!! !!!!  ",
"  !!!  !!! !!   ",
" !!!!  !!! !!!  ",
" !!!!!!!! !!!!! ",
" !!!!!!!! !!!!! ",
" !!!!  !!! !!!  ",
"  !!!  !!! !!   ",
"  !!!!!!! !!!!  ",
"   !!!!!! !!!!! ",
"    !!!!!! !!!! ",
"       !!!!!!!  ",
"                ",
"                ",
"                ",
"          !     ",
"         !      ",
"         !      ",
"     !!   !     ",
"     !!   !     ",
"         !      ",
"         !      ",
"     !!   !     ",
"     !!   !     ",
"         !      ",
"         !      ",
"          !     ",
"                ",
"                ",
"                ",
"                ",
"                ",
"                ",
"                ",
"                ",
"                ",
"                ",
"                ",
"                ",
"                ",
"                ",
"                ",
"                ",
"                ",
"                ",
"                ",
"                ",
"     !          ",
"    !!  !       ",
"    !!!!!       ",
"     !!!        ",
"                ",
"                ",
"     !          ",
"    !!  !       ",
"    !!!!!       ",
"     !!!        ",
"                ",
"                ",
"                ",
"                ",
"                ",
"                ",
"                ",
"                ",
"     !!!        ",
"    !!!!!       ",
"    !!  !       ",
"     !          ",
"                ",
"                ",
"     !!!        ",
"    !!!!!       ",
"    !!  !       ",
"     !          ",
"                ",
"                ",
"                ",
"                ",
"                ",
"   !!!          ",
"    !!!         ",
"    !!!         ",
"   !!!          ",
"                ",
"                ",
"   !!!          ",
"    !!!         ",
"    !!!         ",
"   !!!          ",
"                ",
"                ",
"                ",
"                ",
"                ",
"                ",
"      !!!       ",
"     !!!        ",
"     !!!        ",
"      !!!       ",
"                ",
"                ",
"      !!!       ",
"     !!!        ",
"     !!!        ",
"      !!!       ",
"                ",
"                ",
"                ",
"                "};
