/* XPM */ 
static const unsigned char * pacman_sprites_xpm[] = {
"32 228 9 1",
" 	c None",
"!	c black",
"#	c #FFFF00",
"$	c #00FFFF",
"%	c white",
"&	c #0000FF",
"'	c #FF0000",
"(	c #00FF00",
")	c #808080",
"                   ##     ##    ",
"                  ###     ###   ",
"                  ####   ####   ",
"                 #####   #####  ",
"           #     #####   #####  ",
"        #  #  #  ###### ######  ",
"         #   #   ###### ######  ",
"      #        # ###### ######  ",
"       #      #   ###########   ",
"                  ###########   ",
"       #      #    #########    ",
"      #        #     #####      ",
"        #   #                   ",
"       #  #  #                  ",
"          #                     ",
"                                ",
"                                ",
"                                ",
"                                ",
"                 ##         ##  ",
"                 ###       ###  ",
"                 ####     ####  ",
"                 #####   #####  ",
"                 ###### ######  ",
"                  ###########   ",
"        ######    ###########   ",
"                   #########    ",
"                     #####      ",
"                                ",
"                                ",
"                                ",
"                                ",
"                     #####      ",
"                   #########    ",
"                  ###########   ",
"                  ###########   ",
"                 ###### ######  ",
"                 ###### ######  ",
"                 ###### ######  ",
"             #   #####   #####  ",
"          #####  #####   #####  ",
"        ######    ####   ####   ",
"          #####   ###     ###   ",
"             #     ##     ##    ",
"                                ",
"                                ",
"                                ",
"                                ",
"                     #####      ",
"                   #########    ",
"                  ###########   ",
"                  ###########   ",
"                 ###### ######  ",
"             #   #####   #####  ",
"            ###  ####     ####  ",
"          #####  ###       ###  ",
"         ######  ##         ##  ",
"        ######                  ",
"         ######                 ",
"          #####                 ",
"            ###                 ",
"             #                  ",
"                                ",
"                                ",
"                     #####      ",
"                   #########    ",
"                  ###########   ",
"            ##    ###########   ",
"            ###     ##########  ",
"           ####        #######  ",
"          #####           ####  ",
"          #####        #######  ",
"         #####      ##########  ",
"        #####     ###########   ",
"         #####    ###########   ",
"          #####    #########    ",
"          #####      #####      ",
"           ####                 ",
"            ###                 ",
"            ##                  ",
"                     #####      ",
"                     #######    ",
"           #          #######   ",
"          ###          ######   ",
"          ###           ######  ",
"          ####           #####  ",
"         #####            ####  ",
"         #####           #####  ",
"        #####           ######  ",
"        ####           ######   ",
"        #####         #######   ",
"         #####       #######    ",
"         #####       #####      ",
"          ####                  ",
"          ###                   ",
"          ###                   ",
"           #         #####      ",
"                   #########    ",
"         ##       ###########   ",
"         ###      ###########   ",
"         ###     ##########     ",
"         ####    #######        ",
"        #####    ####           ",
"        #####    #######        ",
"        #####    ##########     ",
"        ####      ###########   ",
"        #####     ###########   ",
"        #####      #########    ",
"        #####        #####      ",
"         ####                   ",
"         ###                    ",
"         ###                    ",
"         ##          #####      ",
"                   #######      ",
"       ###        #######       ",
"       ####       ######        ",
"       ####      ######         ",
"       #####     #####          ",
"        ####     ####           ",
"        ####     #####          ",
"        ####     ######         ",
"        ###       ######        ",
"        ####      #######       ",
"        ####       #######      ",
"        ####         #####      ",
"       #####                    ",
"       ####                     ",
"       ####                     ",
"       ###                      ",
"                                ",
"      ###                       ",
"      ####                      ",
"      #####        $$$$         ",
"       ####        $$$$ %   %   ",
"       #####      $!$$$%%% %%%  ",
"       #####      $!$$$       % ",
"        ####      $!$$$%%%%%%%  ",
"        ###        $$$$         ",
"        ####       $$$$         ",
"       #####                    ",
"       #####                    ",
"       ####                     ",
"      #####                     ",
"      ####                      ",
"      ###                       ",
"                          ####  ",
"     ###               ######$$ ",
"    ######          #########$$ ",
"     ######        ##########$$ ",
"     ######        ##########%% ",
"      ######      #!#########%% ",
"       #####      #!#########$$ ",
"       #####       ##!#######$$ ",
"        ###        ###!!!####$$ ",
"       #####        ######!!#$$ ",
"       #####           ######$$ ",
"      ######              ####  ",
"     ######                     ",
"     ######                     ",
"    ######                      ",
"     ###                        ",
"                                ",
"                    &&&&&       ",
"   #####              ##&&      ",
"   #######            '##&&     ",
"    #######          ''###&&    ",
"     ######         ''###       ",
"      ######       '''''######  ",
"       #####        ''###       ",
"        ####         ''###&&    ",
"       #####          '##&&     ",
"      ######          ##&&      ",
"     ######         &&&&&       ",
"    #######                     ",
"   #######                      ",
"   #####                        ",
"                                ",
"                        (((     ",
"                      ((()(((   ",
"     #####           ()()%(()(  ",
"   #########      )  (()((()()  ",
"  ###########     ) (((%)()%(() ",
"  ###########     ))%)((()()((( ",
" #############    ) (()((%(%)(( ",
" #############    )  (%)((()()  ",
" #############   )   ()()()(((  ",
" #############        ((%)%((   ",
" #############          (((     ",
"  ###########                   ",
"  ###########                   ",
"   #########                    ",
"     #####                      ",
"                                ",
"                     '''''      ",
"                    ''''''''    ",
"                   '''''%%'''   ",
"                   '''''''%'''  ",
"                   '''''''''''  ",
"                  )!''''''''''  ",
"                   ))''''''''   ",
"                    ''''''''''  ",
"                   '''''''''''  ",
"                   ''''''''''   ",
"                   '''''''''    ",
"                    ''''''      ",
"                                ",
"                                ",
"                                ",
"                                ",
"                       ####     ",
"                   (  #######   ",
"                   ((########   ",
"                  (((#########  ",
"                  (((#########  ",
"                   (!)########  ",
"                   ))))#######  ",
"                     )########  ",
"                     #########  ",
"                     ########   ",
"                      #######   ",
"                       ####     ",
"                                ",
"                                ",
"                                ",
"                                ",
"                                ",
"                     ''''       ",
"                    '%'''''     "};