/* XPM */ 
static const unsigned char * bonus_speed_xpm[] = {
"16 16 3 1",
" 	c None",
"!	c black",
"#	c #D25442",
"                ",
"                ",
"                ",
"      ####      ",
"    ########    ",
"    ###  ###    ",
"   ### ## ###   ",
"   # ## ### #   ",
"   # ### ## #   ",
"   ### ## ###   ",
"    ###  ###    ",
"    ########    ",
"      ####      ",
"                ",
"                ",
"                "};