/* XPM */ 
static const unsigned char * rock007_xpm[] = {
"16 16 4 1",
" 	c None",
"!	c black",
"#	c #D3C63C",
"$	c #CCCCCC",
"        ###     ",
"      $######   ",
"     $#$#####   ",
"   ##$########  ",
"  ####$#######  ",
" $##$$######### ",
" #$$########### ",
" ####$######### ",
" #$###########  ",
" ##$########### ",
"  #$########$## ",
"   $##########  ",
"   #$########   ",
"    ########    ",
"      ###       ",
"                "};