/* XPM */ 
static const unsigned char * ship_xpm[] = {
"16 16 4 1",
" 	c None",
"!	c black",
"#	c #544EFF",
"$	c #FF7C6C",
"       #        ",
"       $        ",
"      ###       ",
"     $# #$      ",
"     ##$##      ",
"  # $#####$ #   ",
"  #$###$###$#   ",
"  #####$#####   ",
"  ##$##$##$##   ",
" ##$#######$##  ",
" #$####$####$#  ",
" #$### $ ###$#  ",
" #####$$$#####  ",
" # # #$#$# # #  ",
" ##   #$#   ##  ",
" #     #     #  "};