/* XPM */ 
static const unsigned char * shot3_xpm[] = {
"16 16 3 1",
" 	c None",
"!	c black",
"#	c #23CB32",
"                ",
"                ",
"                ",
"                ",
"                ",
"                ",
"                ",
"                ",
"                ",
"                ",
"       #        ",
"       #        ",
"  #    #    #   ",
"  #    #    #   ",
"  #         #   ",
"  #         #   "};