/* XPM */ 
static const unsigned char * shot2_xpm[] = {
"16 16 3 1",
" 	c None",
"!	c black",
"#	c #23CB32",
"                ",
"                ",
"                ",
"                ",
"                ",
"                ",
"                ",
"                ",
"                ",
"                ",
"                ",
"                ",
"  #         #   ",
"  #         #   ",
"  #         #   ",
"  #         #   "};